<?xml version="1.0" encoding="utf-8"?><svg width="auto" height="6070" style="overflow:visible " version="1.1" xmlns="http://www.w3.org/2000/svg"><rect x="20" y="20" width="200" height="40" style="fill:white;stroke:black;stroke-width:1" /><text x="30" y="30" font-size="10" style="fill:blue">rutas</text><rect x="240" y="20" width="200" height="40" style="fill:white;stroke:black;stroke-width:1" /><text x="250" y="30" font-size="10" style="fill:blue">ruta</text><path d="M220 40 C240 40 220 40 240 40" style="fill:transparent;stroke:black" /><rect x="460" y="20" width="200" height="40" style="fill:white;stroke:black;stroke-width:1" /><text x="470" y="30" font-size="10" style="fill:blue">nombre-ruta</text><path d="M440 40 C460 40 440 40 460 40" style="fill:transparent;stroke:black" /><rect x="526" y="20" width="137" height="40" style="fill:green;stroke:black;stroke-width:1" /><text x="536" y="30" font-size="8" style="fill:white">E4 253ª CABAÑA FOREST PARADISE-CHIPROVTSI</text><rect x="460" y="70" width="200" height="40" style="fill:white;stroke:black;stroke-width:1" /><text x="470" y="80" font-size="10" style="fill:blue">tipo-ruta</text><path d="M440 40 C460 40 440 90 460 90" style="fill:transparent;stroke:black" /><rect x="526" y="70" width="137" height="40" style="fill:green;stroke:black;stroke-width:1" /><text x="536" y="80" font-size="8" style="fill:white">Senderismo</text><rect x="460" y="120" width="200" height="40" style="fill:white;stroke:black;stroke-width:1" /><text x="470" y="130" font-size="10" style="fill:blue">medio-transporte</text><path d="M440 40 C460 40 440 140 460 140" style="fill:transparent;stroke:black" /><rect x="526" y="120" width="137" height="40" style="fill:green;stroke:black;stroke-width:1" /><text x="536" y="130" font-size="8" style="fill:white">A pie</text><rect x="460" y="170" width="200" height="40" style="fill:white;stroke:black;stroke-width:1" /><text x="470" y="180" font-size="10" style="fill:blue">fecha-inicio</text><path d="M440 40 C460 40 440 190 460 190" style="fill:transparent;stroke:black" /><rect x="526" y="170" width="137" height="40" style="fill:green;stroke:black;stroke-width:1" /><text x="536" y="180" font-size="8" style="fill:white">23/10/2023</text><rect x="460" y="220" width="200" height="40" style="fill:white;stroke:black;stroke-width:1" /><text x="470" y="230" font-size="10" style="fill:blue">hora-inicio</text><path d="M440 40 C460 40 440 240 460 240" style="fill:transparent;stroke:black" /><rect x="526" y="220" width="137" height="40" style="fill:green;stroke:black;stroke-width:1" /><text x="536" y="230" font-size="8" style="fill:white">10:00</text><rect x="460" y="270" width="200" height="40" style="fill:white;stroke:black;stroke-width:1" /><text x="470" y="280" font-size="10" style="fill:blue">duracion</text><path d="M440 40 C460 40 440 290 460 290" style="fill:transparent;stroke:black" /><rect x="526" y="270" width="137" height="40" style="fill:green;stroke:black;stroke-width:1" /><text x="536" y="280" font-size="8" style="fill:white">10h55m</text><rect x="460" y="320" width="200" height="40" style="fill:white;stroke:black;stroke-width:1" /><text x="470" y="330" font-size="10" style="fill:blue">agencia</text><path d="M440 40 C460 40 440 340 460 340" style="fill:transparent;stroke:black" /><rect x="526" y="320" width="137" height="40" style="fill:green;stroke:black;stroke-width:1" /><text x="536" y="330" font-size="8" style="fill:white">Sin agencia</text><rect x="460" y="370" width="200" height="40" style="fill:white;stroke:black;stroke-width:1" /><text x="470" y="380" font-size="10" style="fill:blue">descripcion</text><path d="M440 40 C460 40 440 390 460 390" style="fill:transparent;stroke:black" /><rect x="526" y="370" width="137" height="40" style="fill:green;stroke:black;stroke-width:1" /><text x="536" y="380" font-size="8" style="fill:white">Ruta en serbia</text><rect x="460" y="420" width="200" height="40" style="fill:white;stroke:black;stroke-width:1" /><text x="470" y="430" font-size="10" style="fill:blue">personas-adecuadas</text><path d="M440 40 C460 40 440 440 460 440" style="fill:transparent;stroke:black" /><rect x="526" y="420" width="137" height="40" style="fill:green;stroke:black;stroke-width:1" /><text x="536" y="430" font-size="8" style="fill:white">Jovenes</text><rect x="460" y="470" width="200" height="40" style="fill:white;stroke:black;stroke-width:1" /><text x="470" y="480" font-size="10" style="fill:blue">lugar-inicio</text><path d="M440 40 C460 40 440 490 460 490" style="fill:transparent;stroke:black" /><rect x="526" y="470" width="137" height="40" style="fill:green;stroke:black;stroke-width:1" /><text x="536" y="480" font-size="8" style="fill:white">CABAÑA FOREST PARADISE</text><rect x="460" y="520" width="200" height="40" style="fill:white;stroke:black;stroke-width:1" /><text x="470" y="530" font-size="10" style="fill:blue">direccion-inicio</text><path d="M440 40 C460 40 440 540 460 540" style="fill:transparent;stroke:black" /><rect x="526" y="520" width="137" height="40" style="fill:green;stroke:black;stroke-width:1" /><text x="536" y="530" font-size="8" style="fill:white">En medio del bosque</text><rect x="460" y="570" width="200" height="40" style="fill:white;stroke:black;stroke-width:1" /><text x="470" y="580" font-size="10" style="fill:blue">coordenadas-inicio</text><path d="M440 40 C460 40 440 590 460 590" style="fill:transparent;stroke:black" /><text x="470" y="590" font-size="8" style="fill:black">longitud: 17.396343</text><text x="470" y="600" font-size="8" style="fill:black">latitud: 44.772011</text><text x="470" y="610" font-size="8" style="fill:black">altitud: 650</text><rect x="460" y="620" width="200" height="40" style="fill:white;stroke:black;stroke-width:1" /><text x="470" y="630" font-size="10" style="fill:blue">referencias</text><path d="M440 40 C460 40 440 640 460 640" style="fill:transparent;stroke:black" /><rect x="680" y="620" width="200" height="40" style="fill:white;stroke:black;stroke-width:1" /><text x="690" y="630" font-size="10" style="fill:blue">referencia</text><path d="M660 640 C680 640 660 640 680 640" style="fill:transparent;stroke:black" /><text x="690" y="640" font-size="8" style="fill:black">path: https://es.wikiloc.com/rutas-senderismo/e4-253a-cabana-forest-paradise-chiprovtsi-42715617#wp-42715619</text><rect x="680" y="670" width="200" height="40" style="fill:white;stroke:black;stroke-width:1" /><text x="690" y="680" font-size="10" style="fill:blue">referencia</text><path d="M660 640 C680 640 660 690 680 690" style="fill:transparent;stroke:black" /><text x="690" y="690" font-size="8" style="fill:black">path: https://es.wikipedia.org/wiki/Crni_Vrh</text><rect x="680" y="720" width="200" height="40" style="fill:white;stroke:black;stroke-width:1" /><text x="690" y="730" font-size="10" style="fill:blue">referencia</text><path d="M660 640 C680 640 660 740 680 740" style="fill:transparent;stroke:black" /><text x="690" y="740" font-size="8" style="fill:black">path: https://es.wikipedia.org/wiki/Midžor</text><rect x="460" y="820" width="200" height="40" style="fill:white;stroke:black;stroke-width:1" /><text x="470" y="830" font-size="10" style="fill:blue">recomendacion</text><path d="M440 40 C460 40 440 840 460 840" style="fill:transparent;stroke:black" /><text x="470" y="840" font-size="8" style="fill:black">nota: 10</text><rect x="460" y="870" width="200" height="40" style="fill:white;stroke:black;stroke-width:1" /><text x="470" y="880" font-size="10" style="fill:blue">hitos</text><path d="M440 40 C460 40 440 890 460 890" style="fill:transparent;stroke:black" /><rect x="680" y="870" width="200" height="40" style="fill:white;stroke:black;stroke-width:1" /><text x="690" y="880" font-size="10" style="fill:blue">hito</text><path d="M660 890 C680 890 660 890 680 890" style="fill:transparent;stroke:black" /><rect x="900" y="870" width="200" height="40" style="fill:white;stroke:black;stroke-width:1" /><text x="910" y="880" font-size="10" style="fill:blue">nombre-hito</text><path d="M880 890 C900 890 880 890 900 890" style="fill:transparent;stroke:black" /><rect x="966" y="870" width="137" height="40" style="fill:green;stroke:black;stroke-width:1" /><text x="976" y="880" font-size="8" style="fill:white">Midzhur</text><rect x="900" y="920" width="200" height="40" style="fill:white;stroke:black;stroke-width:1" /><text x="910" y="930" font-size="10" style="fill:blue">descripcion-hito</text><path d="M880 890 C900 890 880 940 900 940" style="fill:transparent;stroke:black" /><rect x="966" y="920" width="137" height="40" style="fill:green;stroke:black;stroke-width:1" /><text x="976" y="930" font-size="8" style="fill:white">Llegamos a Midzhur</text><rect x="900" y="970" width="200" height="40" style="fill:white;stroke:black;stroke-width:1" /><text x="910" y="980" font-size="10" style="fill:blue">coordenadas-hito</text><path d="M880 890 C900 890 880 990 900 990" style="fill:transparent;stroke:black" /><text x="910" y="990" font-size="8" style="fill:black">longitud: 22.681944</text><text x="910" y="1000" font-size="8" style="fill:black">latitud: 43.393889</text><text x="910" y="1010" font-size="8" style="fill:black">altitud: 2.169</text><rect x="900" y="1020" width="200" height="40" style="fill:white;stroke:black;stroke-width:1" /><text x="910" y="1030" font-size="10" style="fill:blue">distancia-hito-anterior</text><path d="M880 890 C900 890 880 1040 900 1040" style="fill:transparent;stroke:black" /><text x="910" y="1040" font-size="8" style="fill:black">kilometros: 0</text><rect x="900" y="1070" width="200" height="40" style="fill:white;stroke:black;stroke-width:1" /><text x="910" y="1080" font-size="10" style="fill:blue">fotos</text><path d="M880 890 C900 890 880 1090 900 1090" style="fill:transparent;stroke:black" /><rect x="1120" y="1070" width="200" height="40" style="fill:white;stroke:black;stroke-width:1" /><text x="1130" y="1080" font-size="10" style="fill:blue">foto</text><path d="M1100 1090 C1120 1090 1100 1090 1120 1090" style="fill:transparent;stroke:black" /><text x="1130" y="1090" font-size="8" style="fill:black">path: midzhur.png</text><rect x="680" y="1220" width="200" height="40" style="fill:white;stroke:black;stroke-width:1" /><text x="690" y="1230" font-size="10" style="fill:blue">hito</text><path d="M660 890 C680 890 660 1240 680 1240" style="fill:transparent;stroke:black" /><rect x="900" y="1220" width="200" height="40" style="fill:white;stroke:black;stroke-width:1" /><text x="910" y="1230" font-size="10" style="fill:blue">nombre-hito</text><path d="M880 1240 C900 1240 880 1240 900 1240" style="fill:transparent;stroke:black" /><rect x="966" y="1220" width="137" height="40" style="fill:green;stroke:black;stroke-width:1" /><text x="976" y="1230" font-size="8" style="fill:white">Midzhur</text><rect x="900" y="1270" width="200" height="40" style="fill:white;stroke:black;stroke-width:1" /><text x="910" y="1280" font-size="10" style="fill:blue">descripcion-hito</text><path d="M880 1240 C900 1240 880 1290 900 1290" style="fill:transparent;stroke:black" /><rect x="966" y="1270" width="137" height="40" style="fill:green;stroke:black;stroke-width:1" /><text x="976" y="1280" font-size="8" style="fill:white">Llegamos a Midzhur</text><rect x="900" y="1320" width="200" height="40" style="fill:white;stroke:black;stroke-width:1" /><text x="910" y="1330" font-size="10" style="fill:blue">coordenadas-hito</text><path d="M880 1240 C900 1240 880 1340 900 1340" style="fill:transparent;stroke:black" /><text x="910" y="1340" font-size="8" style="fill:black">longitud: 22.681944</text><text x="910" y="1350" font-size="8" style="fill:black">latitud: 43.393889</text><text x="910" y="1360" font-size="8" style="fill:black">altitud: 2.169</text><rect x="900" y="1370" width="200" height="40" style="fill:white;stroke:black;stroke-width:1" /><text x="910" y="1380" font-size="10" style="fill:blue">distancia-hito-anterior</text><path d="M880 1240 C900 1240 880 1390 900 1390" style="fill:transparent;stroke:black" /><text x="910" y="1390" font-size="8" style="fill:black">kilometros: 0</text><rect x="900" y="1420" width="200" height="40" style="fill:white;stroke:black;stroke-width:1" /><text x="910" y="1430" font-size="10" style="fill:blue">fotos</text><path d="M880 1240 C900 1240 880 1440 900 1440" style="fill:transparent;stroke:black" /><rect x="1120" y="1420" width="200" height="40" style="fill:white;stroke:black;stroke-width:1" /><text x="1130" y="1430" font-size="10" style="fill:blue">foto</text><path d="M1100 1440 C1120 1440 1100 1440 1120 1440" style="fill:transparent;stroke:black" /><text x="1130" y="1440" font-size="8" style="fill:black">path: midzhur.png</text><rect x="680" y="1570" width="200" height="40" style="fill:white;stroke:black;stroke-width:1" /><text x="690" y="1580" font-size="10" style="fill:blue">hito</text><path d="M660 890 C680 890 660 1590 680 1590" style="fill:transparent;stroke:black" /><rect x="900" y="1570" width="200" height="40" style="fill:white;stroke:black;stroke-width:1" /><text x="910" y="1580" font-size="10" style="fill:blue">nombre-hito</text><path d="M880 1590 C900 1590 880 1590 900 1590" style="fill:transparent;stroke:black" /><rect x="966" y="1570" width="137" height="40" style="fill:green;stroke:black;stroke-width:1" /><text x="976" y="1580" font-size="8" style="fill:white">Midzhur</text><rect x="900" y="1620" width="200" height="40" style="fill:white;stroke:black;stroke-width:1" /><text x="910" y="1630" font-size="10" style="fill:blue">descripcion-hito</text><path d="M880 1590 C900 1590 880 1640 900 1640" style="fill:transparent;stroke:black" /><rect x="966" y="1620" width="137" height="40" style="fill:green;stroke:black;stroke-width:1" /><text x="976" y="1630" font-size="8" style="fill:white">Llegamos a Midzhur</text><rect x="900" y="1670" width="200" height="40" style="fill:white;stroke:black;stroke-width:1" /><text x="910" y="1680" font-size="10" style="fill:blue">coordenadas-hito</text><path d="M880 1590 C900 1590 880 1690 900 1690" style="fill:transparent;stroke:black" /><text x="910" y="1690" font-size="8" style="fill:black">longitud: 22.681944</text><text x="910" y="1700" font-size="8" style="fill:black">latitud: 43.393889</text><text x="910" y="1710" font-size="8" style="fill:black">altitud: 2.169</text><rect x="900" y="1720" width="200" height="40" style="fill:white;stroke:black;stroke-width:1" /><text x="910" y="1730" font-size="10" style="fill:blue">distancia-hito-anterior</text><path d="M880 1590 C900 1590 880 1740 900 1740" style="fill:transparent;stroke:black" /><text x="910" y="1740" font-size="8" style="fill:black">kilometros: 0</text><rect x="900" y="1770" width="200" height="40" style="fill:white;stroke:black;stroke-width:1" /><text x="910" y="1780" font-size="10" style="fill:blue">fotos</text><path d="M880 1590 C900 1590 880 1790 900 1790" style="fill:transparent;stroke:black" /><rect x="1120" y="1770" width="200" height="40" style="fill:white;stroke:black;stroke-width:1" /><text x="1130" y="1780" font-size="10" style="fill:blue">foto</text><path d="M1100 1790 C1120 1790 1100 1790 1120 1790" style="fill:transparent;stroke:black" /><text x="1130" y="1790" font-size="8" style="fill:black">path: midzhur.png</text><rect x="240" y="2020" width="200" height="40" style="fill:white;stroke:black;stroke-width:1" /><text x="250" y="2030" font-size="10" style="fill:blue">ruta</text><path d="M220 40 C240 40 220 2040 240 2040" style="fill:transparent;stroke:black" /><rect x="460" y="2020" width="200" height="40" style="fill:white;stroke:black;stroke-width:1" /><text x="470" y="2030" font-size="10" style="fill:blue">nombre-ruta</text><path d="M440 2040 C460 2040 440 2040 460 2040" style="fill:transparent;stroke:black" /><rect x="526" y="2020" width="137" height="40" style="fill:green;stroke:black;stroke-width:1" /><text x="536" y="2030" font-size="8" style="fill:white">E4 253ª CABAÑA FOREST PARADISE-CHIPROVTSI</text><rect x="460" y="2070" width="200" height="40" style="fill:white;stroke:black;stroke-width:1" /><text x="470" y="2080" font-size="10" style="fill:blue">tipo-ruta</text><path d="M440 2040 C460 2040 440 2090 460 2090" style="fill:transparent;stroke:black" /><rect x="526" y="2070" width="137" height="40" style="fill:green;stroke:black;stroke-width:1" /><text x="536" y="2080" font-size="8" style="fill:white">Senderismo</text><rect x="460" y="2120" width="200" height="40" style="fill:white;stroke:black;stroke-width:1" /><text x="470" y="2130" font-size="10" style="fill:blue">medio-transporte</text><path d="M440 2040 C460 2040 440 2140 460 2140" style="fill:transparent;stroke:black" /><rect x="526" y="2120" width="137" height="40" style="fill:green;stroke:black;stroke-width:1" /><text x="536" y="2130" font-size="8" style="fill:white">A pie</text><rect x="460" y="2170" width="200" height="40" style="fill:white;stroke:black;stroke-width:1" /><text x="470" y="2180" font-size="10" style="fill:blue">fecha-inicio</text><path d="M440 2040 C460 2040 440 2190 460 2190" style="fill:transparent;stroke:black" /><rect x="526" y="2170" width="137" height="40" style="fill:green;stroke:black;stroke-width:1" /><text x="536" y="2180" font-size="8" style="fill:white">23/10/2023</text><rect x="460" y="2220" width="200" height="40" style="fill:white;stroke:black;stroke-width:1" /><text x="470" y="2230" font-size="10" style="fill:blue">hora-inicio</text><path d="M440 2040 C460 2040 440 2240 460 2240" style="fill:transparent;stroke:black" /><rect x="526" y="2220" width="137" height="40" style="fill:green;stroke:black;stroke-width:1" /><text x="536" y="2230" font-size="8" style="fill:white">10:00</text><rect x="460" y="2270" width="200" height="40" style="fill:white;stroke:black;stroke-width:1" /><text x="470" y="2280" font-size="10" style="fill:blue">duracion</text><path d="M440 2040 C460 2040 440 2290 460 2290" style="fill:transparent;stroke:black" /><rect x="526" y="2270" width="137" height="40" style="fill:green;stroke:black;stroke-width:1" /><text x="536" y="2280" font-size="8" style="fill:white">10h55m</text><rect x="460" y="2320" width="200" height="40" style="fill:white;stroke:black;stroke-width:1" /><text x="470" y="2330" font-size="10" style="fill:blue">agencia</text><path d="M440 2040 C460 2040 440 2340 460 2340" style="fill:transparent;stroke:black" /><rect x="526" y="2320" width="137" height="40" style="fill:green;stroke:black;stroke-width:1" /><text x="536" y="2330" font-size="8" style="fill:white">Sin agencia</text><rect x="460" y="2370" width="200" height="40" style="fill:white;stroke:black;stroke-width:1" /><text x="470" y="2380" font-size="10" style="fill:blue">descripcion</text><path d="M440 2040 C460 2040 440 2390 460 2390" style="fill:transparent;stroke:black" /><rect x="526" y="2370" width="137" height="40" style="fill:green;stroke:black;stroke-width:1" /><text x="536" y="2380" font-size="8" style="fill:white">Ruta en serbia</text><rect x="460" y="2420" width="200" height="40" style="fill:white;stroke:black;stroke-width:1" /><text x="470" y="2430" font-size="10" style="fill:blue">personas-adecuadas</text><path d="M440 2040 C460 2040 440 2440 460 2440" style="fill:transparent;stroke:black" /><rect x="526" y="2420" width="137" height="40" style="fill:green;stroke:black;stroke-width:1" /><text x="536" y="2430" font-size="8" style="fill:white">Jovenes</text><rect x="460" y="2470" width="200" height="40" style="fill:white;stroke:black;stroke-width:1" /><text x="470" y="2480" font-size="10" style="fill:blue">lugar-inicio</text><path d="M440 2040 C460 2040 440 2490 460 2490" style="fill:transparent;stroke:black" /><rect x="526" y="2470" width="137" height="40" style="fill:green;stroke:black;stroke-width:1" /><text x="536" y="2480" font-size="8" style="fill:white">CABAÑA FOREST PARADISE</text><rect x="460" y="2520" width="200" height="40" style="fill:white;stroke:black;stroke-width:1" /><text x="470" y="2530" font-size="10" style="fill:blue">direccion-inicio</text><path d="M440 2040 C460 2040 440 2540 460 2540" style="fill:transparent;stroke:black" /><rect x="526" y="2520" width="137" height="40" style="fill:green;stroke:black;stroke-width:1" /><text x="536" y="2530" font-size="8" style="fill:white">En medio del bosque</text><rect x="460" y="2570" width="200" height="40" style="fill:white;stroke:black;stroke-width:1" /><text x="470" y="2580" font-size="10" style="fill:blue">coordenadas-inicio</text><path d="M440 2040 C460 2040 440 2590 460 2590" style="fill:transparent;stroke:black" /><text x="470" y="2590" font-size="8" style="fill:black">longitud: 17.396343</text><text x="470" y="2600" font-size="8" style="fill:black">latitud: 44.772011</text><text x="470" y="2610" font-size="8" style="fill:black">altitud: 650</text><rect x="460" y="2620" width="200" height="40" style="fill:white;stroke:black;stroke-width:1" /><text x="470" y="2630" font-size="10" style="fill:blue">referencias</text><path d="M440 2040 C460 2040 440 2640 460 2640" style="fill:transparent;stroke:black" /><rect x="680" y="2620" width="200" height="40" style="fill:white;stroke:black;stroke-width:1" /><text x="690" y="2630" font-size="10" style="fill:blue">referencia</text><path d="M660 2640 C680 2640 660 2640 680 2640" style="fill:transparent;stroke:black" /><text x="690" y="2640" font-size="8" style="fill:black">path: https://es.wikiloc.com/rutas-senderismo/e4-253a-cabana-forest-paradise-chiprovtsi-42715617#wp-42715619</text><rect x="680" y="2670" width="200" height="40" style="fill:white;stroke:black;stroke-width:1" /><text x="690" y="2680" font-size="10" style="fill:blue">referencia</text><path d="M660 2640 C680 2640 660 2690 680 2690" style="fill:transparent;stroke:black" /><text x="690" y="2690" font-size="8" style="fill:black">path: https://es.wikipedia.org/wiki/Crni_Vrh</text><rect x="680" y="2720" width="200" height="40" style="fill:white;stroke:black;stroke-width:1" /><text x="690" y="2730" font-size="10" style="fill:blue">referencia</text><path d="M660 2640 C680 2640 660 2740 680 2740" style="fill:transparent;stroke:black" /><text x="690" y="2740" font-size="8" style="fill:black">path: https://es.wikipedia.org/wiki/Midžor</text><rect x="460" y="2820" width="200" height="40" style="fill:white;stroke:black;stroke-width:1" /><text x="470" y="2830" font-size="10" style="fill:blue">recomendacion</text><path d="M440 2040 C460 2040 440 2840 460 2840" style="fill:transparent;stroke:black" /><text x="470" y="2840" font-size="8" style="fill:black">nota: 10</text><rect x="460" y="2870" width="200" height="40" style="fill:white;stroke:black;stroke-width:1" /><text x="470" y="2880" font-size="10" style="fill:blue">hitos</text><path d="M440 2040 C460 2040 440 2890 460 2890" style="fill:transparent;stroke:black" /><rect x="680" y="2870" width="200" height="40" style="fill:white;stroke:black;stroke-width:1" /><text x="690" y="2880" font-size="10" style="fill:blue">hito</text><path d="M660 2890 C680 2890 660 2890 680 2890" style="fill:transparent;stroke:black" /><rect x="900" y="2870" width="200" height="40" style="fill:white;stroke:black;stroke-width:1" /><text x="910" y="2880" font-size="10" style="fill:blue">nombre-hito</text><path d="M880 2890 C900 2890 880 2890 900 2890" style="fill:transparent;stroke:black" /><rect x="966" y="2870" width="137" height="40" style="fill:green;stroke:black;stroke-width:1" /><text x="976" y="2880" font-size="8" style="fill:white">Midzhur</text><rect x="900" y="2920" width="200" height="40" style="fill:white;stroke:black;stroke-width:1" /><text x="910" y="2930" font-size="10" style="fill:blue">descripcion-hito</text><path d="M880 2890 C900 2890 880 2940 900 2940" style="fill:transparent;stroke:black" /><rect x="966" y="2920" width="137" height="40" style="fill:green;stroke:black;stroke-width:1" /><text x="976" y="2930" font-size="8" style="fill:white">Llegamos a Midzhur</text><rect x="900" y="2970" width="200" height="40" style="fill:white;stroke:black;stroke-width:1" /><text x="910" y="2980" font-size="10" style="fill:blue">coordenadas-hito</text><path d="M880 2890 C900 2890 880 2990 900 2990" style="fill:transparent;stroke:black" /><text x="910" y="2990" font-size="8" style="fill:black">longitud: 22.681944</text><text x="910" y="3000" font-size="8" style="fill:black">latitud: 43.393889</text><text x="910" y="3010" font-size="8" style="fill:black">altitud: 2.169</text><rect x="900" y="3020" width="200" height="40" style="fill:white;stroke:black;stroke-width:1" /><text x="910" y="3030" font-size="10" style="fill:blue">distancia-hito-anterior</text><path d="M880 2890 C900 2890 880 3040 900 3040" style="fill:transparent;stroke:black" /><text x="910" y="3040" font-size="8" style="fill:black">kilometros: 0</text><rect x="900" y="3070" width="200" height="40" style="fill:white;stroke:black;stroke-width:1" /><text x="910" y="3080" font-size="10" style="fill:blue">fotos</text><path d="M880 2890 C900 2890 880 3090 900 3090" style="fill:transparent;stroke:black" /><rect x="1120" y="3070" width="200" height="40" style="fill:white;stroke:black;stroke-width:1" /><text x="1130" y="3080" font-size="10" style="fill:blue">foto</text><path d="M1100 3090 C1120 3090 1100 3090 1120 3090" style="fill:transparent;stroke:black" /><text x="1130" y="3090" font-size="8" style="fill:black">path: midzhur.png</text><rect x="680" y="3220" width="200" height="40" style="fill:white;stroke:black;stroke-width:1" /><text x="690" y="3230" font-size="10" style="fill:blue">hito</text><path d="M660 2890 C680 2890 660 3240 680 3240" style="fill:transparent;stroke:black" /><rect x="900" y="3220" width="200" height="40" style="fill:white;stroke:black;stroke-width:1" /><text x="910" y="3230" font-size="10" style="fill:blue">nombre-hito</text><path d="M880 3240 C900 3240 880 3240 900 3240" style="fill:transparent;stroke:black" /><rect x="966" y="3220" width="137" height="40" style="fill:green;stroke:black;stroke-width:1" /><text x="976" y="3230" font-size="8" style="fill:white">Midzhur</text><rect x="900" y="3270" width="200" height="40" style="fill:white;stroke:black;stroke-width:1" /><text x="910" y="3280" font-size="10" style="fill:blue">descripcion-hito</text><path d="M880 3240 C900 3240 880 3290 900 3290" style="fill:transparent;stroke:black" /><rect x="966" y="3270" width="137" height="40" style="fill:green;stroke:black;stroke-width:1" /><text x="976" y="3280" font-size="8" style="fill:white">Llegamos a Midzhur</text><rect x="900" y="3320" width="200" height="40" style="fill:white;stroke:black;stroke-width:1" /><text x="910" y="3330" font-size="10" style="fill:blue">coordenadas-hito</text><path d="M880 3240 C900 3240 880 3340 900 3340" style="fill:transparent;stroke:black" /><text x="910" y="3340" font-size="8" style="fill:black">longitud: 22.681944</text><text x="910" y="3350" font-size="8" style="fill:black">latitud: 43.393889</text><text x="910" y="3360" font-size="8" style="fill:black">altitud: 2.169</text><rect x="900" y="3370" width="200" height="40" style="fill:white;stroke:black;stroke-width:1" /><text x="910" y="3380" font-size="10" style="fill:blue">distancia-hito-anterior</text><path d="M880 3240 C900 3240 880 3390 900 3390" style="fill:transparent;stroke:black" /><text x="910" y="3390" font-size="8" style="fill:black">kilometros: 0</text><rect x="900" y="3420" width="200" height="40" style="fill:white;stroke:black;stroke-width:1" /><text x="910" y="3430" font-size="10" style="fill:blue">fotos</text><path d="M880 3240 C900 3240 880 3440 900 3440" style="fill:transparent;stroke:black" /><rect x="1120" y="3420" width="200" height="40" style="fill:white;stroke:black;stroke-width:1" /><text x="1130" y="3430" font-size="10" style="fill:blue">foto</text><path d="M1100 3440 C1120 3440 1100 3440 1120 3440" style="fill:transparent;stroke:black" /><text x="1130" y="3440" font-size="8" style="fill:black">path: midzhur.png</text><rect x="680" y="3570" width="200" height="40" style="fill:white;stroke:black;stroke-width:1" /><text x="690" y="3580" font-size="10" style="fill:blue">hito</text><path d="M660 2890 C680 2890 660 3590 680 3590" style="fill:transparent;stroke:black" /><rect x="900" y="3570" width="200" height="40" style="fill:white;stroke:black;stroke-width:1" /><text x="910" y="3580" font-size="10" style="fill:blue">nombre-hito</text><path d="M880 3590 C900 3590 880 3590 900 3590" style="fill:transparent;stroke:black" /><rect x="966" y="3570" width="137" height="40" style="fill:green;stroke:black;stroke-width:1" /><text x="976" y="3580" font-size="8" style="fill:white">Midzhur</text><rect x="900" y="3620" width="200" height="40" style="fill:white;stroke:black;stroke-width:1" /><text x="910" y="3630" font-size="10" style="fill:blue">descripcion-hito</text><path d="M880 3590 C900 3590 880 3640 900 3640" style="fill:transparent;stroke:black" /><rect x="966" y="3620" width="137" height="40" style="fill:green;stroke:black;stroke-width:1" /><text x="976" y="3630" font-size="8" style="fill:white">Llegamos a Midzhur</text><rect x="900" y="3670" width="200" height="40" style="fill:white;stroke:black;stroke-width:1" /><text x="910" y="3680" font-size="10" style="fill:blue">coordenadas-hito</text><path d="M880 3590 C900 3590 880 3690 900 3690" style="fill:transparent;stroke:black" /><text x="910" y="3690" font-size="8" style="fill:black">longitud: 22.681944</text><text x="910" y="3700" font-size="8" style="fill:black">latitud: 43.393889</text><text x="910" y="3710" font-size="8" style="fill:black">altitud: 2.169</text><rect x="900" y="3720" width="200" height="40" style="fill:white;stroke:black;stroke-width:1" /><text x="910" y="3730" font-size="10" style="fill:blue">distancia-hito-anterior</text><path d="M880 3590 C900 3590 880 3740 900 3740" style="fill:transparent;stroke:black" /><text x="910" y="3740" font-size="8" style="fill:black">kilometros: 0</text><rect x="900" y="3770" width="200" height="40" style="fill:white;stroke:black;stroke-width:1" /><text x="910" y="3780" font-size="10" style="fill:blue">fotos</text><path d="M880 3590 C900 3590 880 3790 900 3790" style="fill:transparent;stroke:black" /><rect x="1120" y="3770" width="200" height="40" style="fill:white;stroke:black;stroke-width:1" /><text x="1130" y="3780" font-size="10" style="fill:blue">foto</text><path d="M1100 3790 C1120 3790 1100 3790 1120 3790" style="fill:transparent;stroke:black" /><text x="1130" y="3790" font-size="8" style="fill:black">path: midzhur.png</text><rect x="240" y="4020" width="200" height="40" style="fill:white;stroke:black;stroke-width:1" /><text x="250" y="4030" font-size="10" style="fill:blue">ruta</text><path d="M220 40 C240 40 220 4040 240 4040" style="fill:transparent;stroke:black" /><rect x="460" y="4020" width="200" height="40" style="fill:white;stroke:black;stroke-width:1" /><text x="470" y="4030" font-size="10" style="fill:blue">nombre-ruta</text><path d="M440 4040 C460 4040 440 4040 460 4040" style="fill:transparent;stroke:black" /><rect x="526" y="4020" width="137" height="40" style="fill:green;stroke:black;stroke-width:1" /><text x="536" y="4030" font-size="8" style="fill:white">E4 253ª CABAÑA FOREST PARADISE-CHIPROVTSI</text><rect x="460" y="4070" width="200" height="40" style="fill:white;stroke:black;stroke-width:1" /><text x="470" y="4080" font-size="10" style="fill:blue">tipo-ruta</text><path d="M440 4040 C460 4040 440 4090 460 4090" style="fill:transparent;stroke:black" /><rect x="526" y="4070" width="137" height="40" style="fill:green;stroke:black;stroke-width:1" /><text x="536" y="4080" font-size="8" style="fill:white">Senderismo</text><rect x="460" y="4120" width="200" height="40" style="fill:white;stroke:black;stroke-width:1" /><text x="470" y="4130" font-size="10" style="fill:blue">medio-transporte</text><path d="M440 4040 C460 4040 440 4140 460 4140" style="fill:transparent;stroke:black" /><rect x="526" y="4120" width="137" height="40" style="fill:green;stroke:black;stroke-width:1" /><text x="536" y="4130" font-size="8" style="fill:white">A pie</text><rect x="460" y="4170" width="200" height="40" style="fill:white;stroke:black;stroke-width:1" /><text x="470" y="4180" font-size="10" style="fill:blue">fecha-inicio</text><path d="M440 4040 C460 4040 440 4190 460 4190" style="fill:transparent;stroke:black" /><rect x="526" y="4170" width="137" height="40" style="fill:green;stroke:black;stroke-width:1" /><text x="536" y="4180" font-size="8" style="fill:white">23/10/2023</text><rect x="460" y="4220" width="200" height="40" style="fill:white;stroke:black;stroke-width:1" /><text x="470" y="4230" font-size="10" style="fill:blue">hora-inicio</text><path d="M440 4040 C460 4040 440 4240 460 4240" style="fill:transparent;stroke:black" /><rect x="526" y="4220" width="137" height="40" style="fill:green;stroke:black;stroke-width:1" /><text x="536" y="4230" font-size="8" style="fill:white">10:00</text><rect x="460" y="4270" width="200" height="40" style="fill:white;stroke:black;stroke-width:1" /><text x="470" y="4280" font-size="10" style="fill:blue">duracion</text><path d="M440 4040 C460 4040 440 4290 460 4290" style="fill:transparent;stroke:black" /><rect x="526" y="4270" width="137" height="40" style="fill:green;stroke:black;stroke-width:1" /><text x="536" y="4280" font-size="8" style="fill:white">10h55m</text><rect x="460" y="4320" width="200" height="40" style="fill:white;stroke:black;stroke-width:1" /><text x="470" y="4330" font-size="10" style="fill:blue">agencia</text><path d="M440 4040 C460 4040 440 4340 460 4340" style="fill:transparent;stroke:black" /><rect x="526" y="4320" width="137" height="40" style="fill:green;stroke:black;stroke-width:1" /><text x="536" y="4330" font-size="8" style="fill:white">Sin agencia</text><rect x="460" y="4370" width="200" height="40" style="fill:white;stroke:black;stroke-width:1" /><text x="470" y="4380" font-size="10" style="fill:blue">descripcion</text><path d="M440 4040 C460 4040 440 4390 460 4390" style="fill:transparent;stroke:black" /><rect x="526" y="4370" width="137" height="40" style="fill:green;stroke:black;stroke-width:1" /><text x="536" y="4380" font-size="8" style="fill:white">Ruta en serbia</text><rect x="460" y="4420" width="200" height="40" style="fill:white;stroke:black;stroke-width:1" /><text x="470" y="4430" font-size="10" style="fill:blue">personas-adecuadas</text><path d="M440 4040 C460 4040 440 4440 460 4440" style="fill:transparent;stroke:black" /><rect x="526" y="4420" width="137" height="40" style="fill:green;stroke:black;stroke-width:1" /><text x="536" y="4430" font-size="8" style="fill:white">Jovenes</text><rect x="460" y="4470" width="200" height="40" style="fill:white;stroke:black;stroke-width:1" /><text x="470" y="4480" font-size="10" style="fill:blue">lugar-inicio</text><path d="M440 4040 C460 4040 440 4490 460 4490" style="fill:transparent;stroke:black" /><rect x="526" y="4470" width="137" height="40" style="fill:green;stroke:black;stroke-width:1" /><text x="536" y="4480" font-size="8" style="fill:white">CABAÑA FOREST PARADISE</text><rect x="460" y="4520" width="200" height="40" style="fill:white;stroke:black;stroke-width:1" /><text x="470" y="4530" font-size="10" style="fill:blue">direccion-inicio</text><path d="M440 4040 C460 4040 440 4540 460 4540" style="fill:transparent;stroke:black" /><rect x="526" y="4520" width="137" height="40" style="fill:green;stroke:black;stroke-width:1" /><text x="536" y="4530" font-size="8" style="fill:white">En medio del bosque</text><rect x="460" y="4570" width="200" height="40" style="fill:white;stroke:black;stroke-width:1" /><text x="470" y="4580" font-size="10" style="fill:blue">coordenadas-inicio</text><path d="M440 4040 C460 4040 440 4590 460 4590" style="fill:transparent;stroke:black" /><text x="470" y="4590" font-size="8" style="fill:black">longitud: 17.396343</text><text x="470" y="4600" font-size="8" style="fill:black">latitud: 44.772011</text><text x="470" y="4610" font-size="8" style="fill:black">altitud: 650</text><rect x="460" y="4620" width="200" height="40" style="fill:white;stroke:black;stroke-width:1" /><text x="470" y="4630" font-size="10" style="fill:blue">referencias</text><path d="M440 4040 C460 4040 440 4640 460 4640" style="fill:transparent;stroke:black" /><rect x="680" y="4620" width="200" height="40" style="fill:white;stroke:black;stroke-width:1" /><text x="690" y="4630" font-size="10" style="fill:blue">referencia</text><path d="M660 4640 C680 4640 660 4640 680 4640" style="fill:transparent;stroke:black" /><text x="690" y="4640" font-size="8" style="fill:black">path: https://es.wikiloc.com/rutas-senderismo/e4-253a-cabana-forest-paradise-chiprovtsi-42715617#wp-42715619</text><rect x="680" y="4670" width="200" height="40" style="fill:white;stroke:black;stroke-width:1" /><text x="690" y="4680" font-size="10" style="fill:blue">referencia</text><path d="M660 4640 C680 4640 660 4690 680 4690" style="fill:transparent;stroke:black" /><text x="690" y="4690" font-size="8" style="fill:black">path: https://es.wikipedia.org/wiki/Crni_Vrh</text><rect x="680" y="4720" width="200" height="40" style="fill:white;stroke:black;stroke-width:1" /><text x="690" y="4730" font-size="10" style="fill:blue">referencia</text><path d="M660 4640 C680 4640 660 4740 680 4740" style="fill:transparent;stroke:black" /><text x="690" y="4740" font-size="8" style="fill:black">path: https://es.wikipedia.org/wiki/Midžor</text><rect x="460" y="4820" width="200" height="40" style="fill:white;stroke:black;stroke-width:1" /><text x="470" y="4830" font-size="10" style="fill:blue">recomendacion</text><path d="M440 4040 C460 4040 440 4840 460 4840" style="fill:transparent;stroke:black" /><text x="470" y="4840" font-size="8" style="fill:black">nota: 10</text><rect x="460" y="4870" width="200" height="40" style="fill:white;stroke:black;stroke-width:1" /><text x="470" y="4880" font-size="10" style="fill:blue">hitos</text><path d="M440 4040 C460 4040 440 4890 460 4890" style="fill:transparent;stroke:black" /><rect x="680" y="4870" width="200" height="40" style="fill:white;stroke:black;stroke-width:1" /><text x="690" y="4880" font-size="10" style="fill:blue">hito</text><path d="M660 4890 C680 4890 660 4890 680 4890" style="fill:transparent;stroke:black" /><rect x="900" y="4870" width="200" height="40" style="fill:white;stroke:black;stroke-width:1" /><text x="910" y="4880" font-size="10" style="fill:blue">nombre-hito</text><path d="M880 4890 C900 4890 880 4890 900 4890" style="fill:transparent;stroke:black" /><rect x="966" y="4870" width="137" height="40" style="fill:green;stroke:black;stroke-width:1" /><text x="976" y="4880" font-size="8" style="fill:white">Midzhur</text><rect x="900" y="4920" width="200" height="40" style="fill:white;stroke:black;stroke-width:1" /><text x="910" y="4930" font-size="10" style="fill:blue">descripcion-hito</text><path d="M880 4890 C900 4890 880 4940 900 4940" style="fill:transparent;stroke:black" /><rect x="966" y="4920" width="137" height="40" style="fill:green;stroke:black;stroke-width:1" /><text x="976" y="4930" font-size="8" style="fill:white">Llegamos a Midzhur</text><rect x="900" y="4970" width="200" height="40" style="fill:white;stroke:black;stroke-width:1" /><text x="910" y="4980" font-size="10" style="fill:blue">coordenadas-hito</text><path d="M880 4890 C900 4890 880 4990 900 4990" style="fill:transparent;stroke:black" /><text x="910" y="4990" font-size="8" style="fill:black">longitud: 22.681944</text><text x="910" y="5000" font-size="8" style="fill:black">latitud: 43.393889</text><text x="910" y="5010" font-size="8" style="fill:black">altitud: 2.169</text><rect x="900" y="5020" width="200" height="40" style="fill:white;stroke:black;stroke-width:1" /><text x="910" y="5030" font-size="10" style="fill:blue">distancia-hito-anterior</text><path d="M880 4890 C900 4890 880 5040 900 5040" style="fill:transparent;stroke:black" /><text x="910" y="5040" font-size="8" style="fill:black">kilometros: 0</text><rect x="900" y="5070" width="200" height="40" style="fill:white;stroke:black;stroke-width:1" /><text x="910" y="5080" font-size="10" style="fill:blue">fotos</text><path d="M880 4890 C900 4890 880 5090 900 5090" style="fill:transparent;stroke:black" /><rect x="1120" y="5070" width="200" height="40" style="fill:white;stroke:black;stroke-width:1" /><text x="1130" y="5080" font-size="10" style="fill:blue">foto</text><path d="M1100 5090 C1120 5090 1100 5090 1120 5090" style="fill:transparent;stroke:black" /><text x="1130" y="5090" font-size="8" style="fill:black">path: midzhur.png</text><rect x="680" y="5220" width="200" height="40" style="fill:white;stroke:black;stroke-width:1" /><text x="690" y="5230" font-size="10" style="fill:blue">hito</text><path d="M660 4890 C680 4890 660 5240 680 5240" style="fill:transparent;stroke:black" /><rect x="900" y="5220" width="200" height="40" style="fill:white;stroke:black;stroke-width:1" /><text x="910" y="5230" font-size="10" style="fill:blue">nombre-hito</text><path d="M880 5240 C900 5240 880 5240 900 5240" style="fill:transparent;stroke:black" /><rect x="966" y="5220" width="137" height="40" style="fill:green;stroke:black;stroke-width:1" /><text x="976" y="5230" font-size="8" style="fill:white">Midzhur</text><rect x="900" y="5270" width="200" height="40" style="fill:white;stroke:black;stroke-width:1" /><text x="910" y="5280" font-size="10" style="fill:blue">descripcion-hito</text><path d="M880 5240 C900 5240 880 5290 900 5290" style="fill:transparent;stroke:black" /><rect x="966" y="5270" width="137" height="40" style="fill:green;stroke:black;stroke-width:1" /><text x="976" y="5280" font-size="8" style="fill:white">Llegamos a Midzhur</text><rect x="900" y="5320" width="200" height="40" style="fill:white;stroke:black;stroke-width:1" /><text x="910" y="5330" font-size="10" style="fill:blue">coordenadas-hito</text><path d="M880 5240 C900 5240 880 5340 900 5340" style="fill:transparent;stroke:black" /><text x="910" y="5340" font-size="8" style="fill:black">longitud: 22.681944</text><text x="910" y="5350" font-size="8" style="fill:black">latitud: 43.393889</text><text x="910" y="5360" font-size="8" style="fill:black">altitud: 2.169</text><rect x="900" y="5370" width="200" height="40" style="fill:white;stroke:black;stroke-width:1" /><text x="910" y="5380" font-size="10" style="fill:blue">distancia-hito-anterior</text><path d="M880 5240 C900 5240 880 5390 900 5390" style="fill:transparent;stroke:black" /><text x="910" y="5390" font-size="8" style="fill:black">kilometros: 0</text><rect x="900" y="5420" width="200" height="40" style="fill:white;stroke:black;stroke-width:1" /><text x="910" y="5430" font-size="10" style="fill:blue">fotos</text><path d="M880 5240 C900 5240 880 5440 900 5440" style="fill:transparent;stroke:black" /><rect x="1120" y="5420" width="200" height="40" style="fill:white;stroke:black;stroke-width:1" /><text x="1130" y="5430" font-size="10" style="fill:blue">foto</text><path d="M1100 5440 C1120 5440 1100 5440 1120 5440" style="fill:transparent;stroke:black" /><text x="1130" y="5440" font-size="8" style="fill:black">path: midzhur.png</text><rect x="680" y="5570" width="200" height="40" style="fill:white;stroke:black;stroke-width:1" /><text x="690" y="5580" font-size="10" style="fill:blue">hito</text><path d="M660 4890 C680 4890 660 5590 680 5590" style="fill:transparent;stroke:black" /><rect x="900" y="5570" width="200" height="40" style="fill:white;stroke:black;stroke-width:1" /><text x="910" y="5580" font-size="10" style="fill:blue">nombre-hito</text><path d="M880 5590 C900 5590 880 5590 900 5590" style="fill:transparent;stroke:black" /><rect x="966" y="5570" width="137" height="40" style="fill:green;stroke:black;stroke-width:1" /><text x="976" y="5580" font-size="8" style="fill:white">Midzhur</text><rect x="900" y="5620" width="200" height="40" style="fill:white;stroke:black;stroke-width:1" /><text x="910" y="5630" font-size="10" style="fill:blue">descripcion-hito</text><path d="M880 5590 C900 5590 880 5640 900 5640" style="fill:transparent;stroke:black" /><rect x="966" y="5620" width="137" height="40" style="fill:green;stroke:black;stroke-width:1" /><text x="976" y="5630" font-size="8" style="fill:white">Llegamos a Midzhur</text><rect x="900" y="5670" width="200" height="40" style="fill:white;stroke:black;stroke-width:1" /><text x="910" y="5680" font-size="10" style="fill:blue">coordenadas-hito</text><path d="M880 5590 C900 5590 880 5690 900 5690" style="fill:transparent;stroke:black" /><text x="910" y="5690" font-size="8" style="fill:black">longitud: 22.681944</text><text x="910" y="5700" font-size="8" style="fill:black">latitud: 43.393889</text><text x="910" y="5710" font-size="8" style="fill:black">altitud: 2.169</text><rect x="900" y="5720" width="200" height="40" style="fill:white;stroke:black;stroke-width:1" /><text x="910" y="5730" font-size="10" style="fill:blue">distancia-hito-anterior</text><path d="M880 5590 C900 5590 880 5740 900 5740" style="fill:transparent;stroke:black" /><text x="910" y="5740" font-size="8" style="fill:black">kilometros: 0</text><rect x="900" y="5770" width="200" height="40" style="fill:white;stroke:black;stroke-width:1" /><text x="910" y="5780" font-size="10" style="fill:blue">fotos</text><path d="M880 5590 C900 5590 880 5790 900 5790" style="fill:transparent;stroke:black" /><rect x="1120" y="5770" width="200" height="40" style="fill:white;stroke:black;stroke-width:1" /><text x="1130" y="5780" font-size="10" style="fill:blue">foto</text><path d="M1100 5790 C1120 5790 1100 5790 1120 5790" style="fill:transparent;stroke:black" /><text x="1130" y="5790" font-size="8" style="fill:black">path: midzhur.png</text></svg>